<mxfile host="Electron" modified="2024-02-26T00:37:32.767Z" agent="Mozilla/5.0 (Windows NT 10.0; Win64; x64) AppleWebKit/537.36 (KHTML, like Gecko) draw.io/23.1.5 Chrome/120.0.6099.109 Electron/28.1.0 Safari/537.36" etag="NTVPBf-owrABnGNDDS4k" version="23.1.5" type="device">
  <diagram name="Page-1" id="-8abJbxVaSNss96QVzLd">
    <mxGraphModel dx="619" dy="526" grid="1" gridSize="10" guides="1" tooltips="1" connect="1" arrows="1" fold="1" page="1" pageScale="1" pageWidth="827" pageHeight="1169" math="0" shadow="0">
      <root>
        <mxCell id="0" />
        <mxCell id="1" parent="0" />
        <mxCell id="HtZAe4uJusKijiLt6FTn-2" value="" style="group" vertex="1" connectable="0" parent="1">
          <mxGeometry x="250" y="330" width="265" height="95" as="geometry" />
        </mxCell>
        <mxCell id="d-73hOehnkkVT-Q2N5_E-1" value="" style="shape=mxgraph.pid.pumps.injector;html=1;pointerEvents=1;align=center;verticalLabelPosition=bottom;verticalAlign=top;dashed=0;fillColor=none;" parent="HtZAe4uJusKijiLt6FTn-2" vertex="1">
          <mxGeometry x="70" y="45" width="100" height="40" as="geometry" />
        </mxCell>
        <mxCell id="d-73hOehnkkVT-Q2N5_E-2" value="H&lt;sub&gt;2&lt;/sub&gt;, O&lt;sub&gt;2&lt;/sub&gt;" style="text;html=1;align=center;verticalAlign=middle;resizable=0;points=[];autosize=1;strokeColor=none;fillColor=none;" parent="HtZAe4uJusKijiLt6FTn-2" vertex="1">
          <mxGeometry y="15" width="60" height="30" as="geometry" />
        </mxCell>
        <mxCell id="d-73hOehnkkVT-Q2N5_E-3" value="" style="endArrow=blockThin;html=1;rounded=0;endFill=1;exitX=1.01;exitY=0.477;exitDx=0;exitDy=0;exitPerimeter=0;" parent="HtZAe4uJusKijiLt6FTn-2" edge="1">
          <mxGeometry width="50" height="50" relative="1" as="geometry">
            <mxPoint x="59.999999999999886" y="30.000000000000057" as="sourcePoint" />
            <mxPoint x="100" y="60" as="targetPoint" />
            <Array as="points">
              <mxPoint x="90" y="30" />
            </Array>
          </mxGeometry>
        </mxCell>
        <mxCell id="d-73hOehnkkVT-Q2N5_E-4" value="" style="endArrow=blockThin;startArrow=blockThin;html=1;rounded=0;strokeColor=#4D4D4D;align=center;verticalAlign=middle;fontFamily=Helvetica;fontSize=11;fontColor=default;labelBackgroundColor=default;endFill=1;startFill=1;strokeWidth=0.5;startSize=3;endSize=3;" parent="HtZAe4uJusKijiLt6FTn-2" edge="1">
          <mxGeometry width="50" height="50" relative="1" as="geometry">
            <mxPoint x="50" y="85" as="sourcePoint" />
            <mxPoint x="50" y="45" as="targetPoint" />
          </mxGeometry>
        </mxCell>
        <mxCell id="d-73hOehnkkVT-Q2N5_E-7" value="60 cm" style="edgeLabel;html=1;align=center;verticalAlign=middle;resizable=0;points=[];fontFamily=Helvetica;fontSize=10;fontColor=default;labelBackgroundColor=none;rounded=0;strokeColor=#4D4D4D;strokeWidth=0.5;" parent="d-73hOehnkkVT-Q2N5_E-4" vertex="1" connectable="0">
          <mxGeometry x="-0.1991" relative="1" as="geometry">
            <mxPoint x="-20" y="-4" as="offset" />
          </mxGeometry>
        </mxCell>
        <mxCell id="d-73hOehnkkVT-Q2N5_E-5" value="" style="endArrow=blockThin;startArrow=blockThin;html=1;rounded=0;strokeColor=#4D4D4D;align=center;verticalAlign=middle;fontFamily=Helvetica;fontSize=11;fontColor=default;labelBackgroundColor=default;endFill=1;startFill=1;strokeWidth=0.5;startSize=3;endSize=3;" parent="HtZAe4uJusKijiLt6FTn-2" edge="1">
          <mxGeometry width="50" height="50" relative="1" as="geometry">
            <mxPoint x="70" y="95" as="sourcePoint" />
            <mxPoint x="120" y="95" as="targetPoint" />
          </mxGeometry>
        </mxCell>
        <mxCell id="d-73hOehnkkVT-Q2N5_E-6" value="75 cm" style="edgeLabel;html=1;align=center;verticalAlign=middle;resizable=0;points=[];fontFamily=Helvetica;fontSize=10;fontColor=default;labelBackgroundColor=none;" parent="d-73hOehnkkVT-Q2N5_E-5" vertex="1" connectable="0">
          <mxGeometry x="-0.1723" relative="1" as="geometry">
            <mxPoint x="3" y="15" as="offset" />
          </mxGeometry>
        </mxCell>
        <mxCell id="d-73hOehnkkVT-Q2N5_E-8" value="" style="endArrow=blockThin;html=1;rounded=0;strokeColor=default;align=center;verticalAlign=middle;fontFamily=Helvetica;fontSize=11;fontColor=default;labelBackgroundColor=default;endFill=1;" parent="HtZAe4uJusKijiLt6FTn-2" edge="1">
          <mxGeometry width="50" height="50" relative="1" as="geometry">
            <mxPoint x="180" y="60" as="sourcePoint" />
            <mxPoint x="200" y="60" as="targetPoint" />
          </mxGeometry>
        </mxCell>
        <mxCell id="d-73hOehnkkVT-Q2N5_E-9" value="" style="endArrow=blockThin;html=1;rounded=0;strokeColor=default;align=center;verticalAlign=middle;fontFamily=Helvetica;fontSize=11;fontColor=default;labelBackgroundColor=default;endFill=1;" parent="HtZAe4uJusKijiLt6FTn-2" edge="1">
          <mxGeometry width="50" height="50" relative="1" as="geometry">
            <mxPoint x="180" y="70" as="sourcePoint" />
            <mxPoint x="200" y="70" as="targetPoint" />
          </mxGeometry>
        </mxCell>
        <mxCell id="d-73hOehnkkVT-Q2N5_E-10" value="108 kg/s" style="text;html=1;align=center;verticalAlign=middle;resizable=0;points=[];autosize=1;strokeColor=none;fillColor=none;" parent="HtZAe4uJusKijiLt6FTn-2" vertex="1">
          <mxGeometry x="195" y="50" width="70" height="30" as="geometry" />
        </mxCell>
        <mxCell id="d-73hOehnkkVT-Q2N5_E-11" value="complete&lt;br&gt;combustion" style="text;html=1;align=left;verticalAlign=middle;resizable=0;points=[];autosize=1;strokeColor=none;fillColor=none;" parent="HtZAe4uJusKijiLt6FTn-2" vertex="1">
          <mxGeometry x="160" width="80" height="40" as="geometry" />
        </mxCell>
        <mxCell id="d-73hOehnkkVT-Q2N5_E-12" value="" style="endArrow=blockThin;html=1;rounded=0;endFill=1;" parent="HtZAe4uJusKijiLt6FTn-2" edge="1">
          <mxGeometry width="50" height="50" relative="1" as="geometry">
            <mxPoint x="155" y="30" as="sourcePoint" />
            <mxPoint x="150" y="60" as="targetPoint" />
            <Array as="points">
              <mxPoint x="140" y="30" />
            </Array>
          </mxGeometry>
        </mxCell>
      </root>
    </mxGraphModel>
  </diagram>
</mxfile>
